<svg xmlns="http://www.w3.org/2000/svg" width="15" height="70" viewBox="0 0 15 70" fill="none">
<mask id="mask0_0_614" style="mask-type:alpha" maskUnits="userSpaceOnUse" x="-10" y="0" width="25" height="70">
<path fill-rule="evenodd" clip-rule="evenodd" d="M-0.411081 2.86301C-0.411081 1.28182 -1.6929 0 -3.27409 0C-4.85529 0 -6.13711 1.28181 -6.13711 2.86301V19.7751C-6.13711 24.3724 -9.00012 28.8046 -9.00012 33.4019C-9.00012 37.9992 -6.13711 42.4314 -6.13711 47.0287V66.8037C-6.13711 68.3849 -4.85529 69.6667 -3.27409 69.6667C-1.6929 69.6667 -0.411081 68.3849 -0.411081 66.8037V55.8288C-0.411081 48.1864 6.59222 42.2349 12.3371 37.1948C13.6409 36.0509 14.4766 34.7634 14.4766 33.4019C14.4766 31.6794 13.139 30.0753 11.2081 28.7308C5.5852 24.8154 -0.411081 19.2583 -0.411081 12.4064V2.86301Z" fill="#51459E"/>
</mask>
<g mask="url(#mask0_0_614)">
<rect width="22.9041" height="48.6712" transform="matrix(-1 0 0 1 22.4925 8.58905)" fill="#51459E"/>
</g>
</svg>